<?xml version="1.0" encoding="utf-8"?>
<!-- Uploaded to: SVG Repo, www.svgrepo.com, Generator: SVG Repo Mixer Tools -->
<svg width="800px" height="800px" viewBox="0 0 1024 1024" class="icon"  version="1.1" xmlns="http://www.w3.org/2000/svg"><path d="M151.047273 843.480478l619.31364 132.981574 83.0971-132.981574" fill="#5FCEFF" /><path d="M977.334807 48.685636l-1.687965 794.791645-920.049502-1.460984 1.687965-794.791646 920.049502 1.460985z m-99.356548 283.542918l0.348462-174.944123-726.467435-1.064569-0.380431 174.944123 726.499404 1.064569z" fill="#FFB578" /><path d="M878.326721 157.284431l-0.348462 174.944123-726.499404-1.064569 0.380431-174.944123z" fill="#8B87C1" /><path d="M861.063445 674.405869h-0.031969l-686.023415-0.99104a22.378321 22.378321 0 1 1 0.031969-44.756642h0.031969l686.020218 0.99104a22.378321 22.378321 0 0 1-0.028772 44.756642zM877.978259 354.606875h-0.031969l-726.499404-1.064569a22.381518 22.381518 0 0 1-22.346352-22.426275l0.380431-174.944123a22.378321 22.378321 0 0 1 22.378321-22.330367h0.031969l726.464238 1.064569a22.371927 22.371927 0 0 1 22.346352 22.426274l-0.348462 174.944123a22.375124 22.375124 0 0 1-22.375124 22.330368zM173.905129 308.817633l681.736368 1.000631 0.262146-130.187481-681.713989-1.000631-0.284525 130.187481zM860.280204 572.299984h-0.031969l-686.023415-0.959071a22.378321 22.378321 0 0 1 0.031969-44.756642h0.031969l686.023415 0.959071a22.378321 22.378321 0 0 1-0.031969 44.756642zM859.452206 464.564353h-0.031969l-686.026612-0.99104a22.378321 22.378321 0 0 1 0.031969-44.756642h0.031969l686.023415 0.99104a22.378321 22.378321 0 0 1 22.346352 22.41029 22.375124 22.375124 0 0 1-22.375124 22.346352z" fill="#4F46A3" /><path d="M975.646842 865.858799h-0.035166l-920.049502-1.460984a22.378321 22.378321 0 0 1-22.343155-22.426275l1.687965-794.791646a22.378321 22.378321 0 0 1 22.378321-22.330367h0.035166l920.046305 1.460985a22.375124 22.375124 0 0 1 22.343155 22.426274l-1.687965 794.791646a22.378321 22.378321 0 0 1-22.375124 22.330367z m-897.626424-46.185657l875.29286 1.393849 1.595254-750.0382-875.29286-1.387456-1.595254 750.031807z" fill="#4F46A3" /><path d="M774.536068 1001.810296c-1.400244 0-2.822865-0.131073-4.248684-0.406006L55.622915 864.026974a22.378321 22.378321 0 0 1-17.752402-26.19862 22.375124 22.375124 0 0 1 26.19862-17.752403l714.664469 137.380513a22.378321 22.378321 0 0 1-4.197534 44.353832z" fill="#4F46A3" /><path d="M774.491312 1001.810296c-3.842677 0-7.736505-0.99104-11.291462-3.07542a22.371927 22.371927 0 0 1-7.992257-30.619937l78.164278-133.374794a22.371927 22.371927 0 0 1 30.619937-7.992257 22.371927 22.371927 0 0 1 7.992257 30.619937l-78.164278 133.374793a22.365533 22.365533 0 0 1-19.328475 11.067678z" fill="#4F46A3" /></svg>