<svg aria-hidden="true" style="position: absolute; width: 0; height: 0; overflow: hidden;" version="1.1" xmlns="http://www.w3.org/2000/svg" xmlns:xlink="http://www.w3.org/1999/xlink">
<defs>
<symbol id="icon-chevron_left_smol" viewBox="0 0 19 32">
<path fill="#4440f6" style="fill: var(--color1, #4440f6)" d="M18.667 16c0-0.763-0.267-1.387-0.885-1.973l-13.584-13.315c-0.414-0.439-1-0.713-1.65-0.713-0.024 0-0.047 0-0.070 0.001l0.003-0c-0.002 0-0.003 0-0.005 0-1.365 0-2.472 1.105-2.475 2.469v0c0 0.675 0.283 1.296 0.779 1.792l12.043 11.72-12.043 11.757c-0.48 0.451-0.779 1.089-0.779 1.797 0 1.361 1.103 2.464 2.464 2.464 0.006 0 0.011-0 0.017-0h-0.001c0.017 0 0.038 0.001 0.058 0.001 0.652 0 1.241-0.272 1.658-0.709l0.001-0.001 13.584-13.32c0.544-0.476 0.885-1.171 0.885-1.946 0-0.009-0-0.017-0-0.026v0.001z"></path>
</symbol>
<symbol id="icon-chevron_left" viewBox="0 0 16 32">
<path fill="#4440f6" style="fill: var(--color1, #4440f6)" d="M0 16c0 0.596 0.204 1.108 0.642 1.55l12.192 12.981c0.345 0.375 0.784 0.58 1.301 0.58 1.035 0 1.865-0.885 1.865-2.027 0-0.564-0.219-1.058-0.564-1.449l-10.987-11.636 10.987-11.636c0.345-0.391 0.564-0.903 0.564-1.449 0-1.141-0.83-2.027-1.865-2.027-0.005-0-0.010-0-0.016-0-0.511 0-0.97 0.223-1.284 0.578l-0.002 0.002-12.192 12.964c-0.397 0.394-0.642 0.94-0.642 1.543 0 0.009 0 0.018 0 0.027v-0.001z"></path>
</symbol>
<symbol id="icon-chevron_rigth" viewBox="0 0 16 32">
<path fill="#4440f6" style="fill: var(--color1, #4440f6)" d="M16 16c-0.008-0.61-0.251-1.161-0.643-1.569l0.001 0.001-12.194-12.964c-0.32-0.356-0.782-0.58-1.297-0.58-0.001 0-0.002 0-0.003 0h0c-1.049 0-1.865 0.885-1.865 2.027 0 0.546 0.204 1.058 0.564 1.449l10.969 11.636-10.969 11.636c-0.349 0.374-0.564 0.877-0.564 1.431 0 0.006 0 0.013 0 0.019v-0.001c0 1.141 0.814 2.027 1.865 2.027 0.515-0.002 0.979-0.224 1.3-0.578l0.001-0.001 12.192-12.981c0.437-0.444 0.642-0.955 0.642-1.55z"></path>
</symbol>
<symbol id="icon-book" viewBox="0 0 32 32">
<path fill="#4440f6" style="fill: var(--color1, #4440f6)" d="M32 16c0 8.837-7.163 16-16 16s-16-7.163-16-16c0-8.837 7.163-16 16-16s16 7.163 16 16z"></path>
<path fill="none" stroke="#f4f4f4" style="stroke: var(--color2, #f4f4f4)" stroke-linejoin="round" stroke-linecap="round" stroke-miterlimit="4" stroke-width="1" d="M8.5 9.25h4.5c1.657 0 3 1.343 3 3v0 10.5c0-1.243-1.007-2.25-2.25-2.25v0h-5.25v-11.25zM23.5 9.25h-4.5c-1.657 0-3 1.343-3 3v0 10.5c0-1.243 1.007-2.25 2.25-2.25v0h5.25v-11.25z"></path>
</symbol>
<symbol id="icon-bx_search" viewBox="0 0 32 32">
<path d="M13.333 23.6c2.368 0 4.666-0.752 6.53-2.138l5.862 5.568 1.885-1.792-5.862-5.568c1.395-1.669 2.245-3.836 2.253-6.201v-0.002c0-5.587-4.784-10.134-10.667-10.134-5.882 0-10.666 4.547-10.666 10.134s4.784 10.133 10.666 10.133zM13.333 5.867c4.413 0 8 3.408 8 7.6s-3.587 7.6-8 7.6c-4.411 0-8-3.408-8-7.6s3.589-7.6 8-7.6z"></path>
</symbol>
<symbol id="icon-calendar" viewBox="0 0 32 32">
<path fill="#4440f7" style="fill: var(--color3, #4440f7)" d="M22.667 4h5.333c0.736 0 1.333 0.597 1.333 1.333v0 21.334c0 0.736-0.597 1.333-1.333 1.333v0h-24c-0.736 0-1.333-0.597-1.333-1.333v0-21.334c0-0.736 0.597-1.333 1.333-1.333v0h5.333v-2.667h2.667v2.667h8v-2.667h2.667v2.667zM26.667 14.667h-21.334v10.666h21.334v-10.666zM20 6.667h-8v2.666h-2.667v-2.666h-4v5.333h21.334v-5.333h-4v2.666h-2.667v-2.666zM8 17.333h2.667v2.667h-2.667v-2.667zM14.667 17.333h2.666v2.667h-2.666v-2.667zM21.333 17.333h2.667v2.667h-2.667v-2.667z"></path>
</symbol>
<symbol id="icon-down" viewBox="0 0 32 32">
<path fill="#4440f6" style="fill: var(--color1, #4440f6)" d="M3.76 9.143l-3.76 3.479 16 14.806 16-14.806-3.76-3.479-12.24 11.302-12.24-11.302z"></path>
</symbol>
<symbol id="icon-heard_mobile" viewBox="0 0 32 32">
<path fill="#4440f6" style="fill: var(--color1, #4440f6)" d="M32 16c0 8.837-7.163 16-16 16s-16-7.163-16-16c0-8.837 7.163-16 16-16s16 7.163 16 16z"></path>
<path fill="none" stroke="#f4f4f4" style="stroke: var(--color2, #f4f4f4)" stroke-linejoin="round" stroke-linecap="round" stroke-miterlimit="4" stroke-width="1" d="M22.63 10.457c-0.747-0.747-1.778-1.208-2.918-1.208s-2.171 0.462-2.918 1.208l-0.795 0.795-0.795-0.795c-0.745-0.74-1.772-1.197-2.906-1.197-2.279 0-4.126 1.847-4.126 4.126 0 1.134 0.457 2.161 1.197 2.906l6.63 6.63 6.63-6.63c0.747-0.747 1.208-1.778 1.208-2.918s-0.462-2.171-1.208-2.918v0z"></path>
</symbol>
<symbol id="icon-heart_favorit" viewBox="0 0 32 32">
<path fill="#4b48da" style="fill: var(--color4, #4b48da)" d="M9.334 4c-3.682 0-6.668 2.954-6.668 6.6 0 2.942 1.168 9.926 12.652 16.986 0.194 0.12 0.43 0.191 0.682 0.191s0.488-0.071 0.688-0.194l-0.006 0.003c11.484-7.060 12.652-14.044 12.652-16.986 0-3.646-2.986-6.6-6.668-6.6-3.68 0-6.666 4-6.666 4s-2.986-4-6.666-4z"></path>
</symbol>
<symbol id="icon-heart_wite" viewBox="0 0 32 32">
<path fill="none" stroke="#4440f7" style="stroke: var(--color3, #4440f7)" stroke-linejoin="round" stroke-linecap="round" stroke-miterlimit="4" stroke-width="2" d="M9.334 4c-3.682 0-6.668 2.954-6.668 6.6 0 2.942 1.168 9.926 12.652 16.986 0.194 0.12 0.43 0.191 0.682 0.191s0.488-0.071 0.688-0.194l-0.006 0.003c11.484-7.060 12.652-14.044 12.652-16.986 0-3.646-2.986-6.6-6.668-6.6-3.68 0-6.666 4-6.666 4s-2.986-4-6.666-4z"></path>
</symbol>
<symbol id="icon-home" viewBox="0 0 32 32">
<path fill="#4440f6" style="fill: var(--color1, #4440f6)" d="M32 16c0 8.837-7.163 16-16 16s-16-7.163-16-16c0-8.837 7.163-16 16-16s16 7.163 16 16z"></path>
<path fill="none" stroke="#f4f4f4" style="stroke: var(--color2, #f4f4f4)" stroke-linejoin="round" stroke-linecap="round" stroke-miterlimit="4" stroke-width="1" d="M9.25 13.75l6.75-5.25 6.75 5.25v8.25c0 0.828-0.672 1.5-1.5 1.5v0h-10.5c-0.828 0-1.5-0.672-1.5-1.5v0-8.25z"></path>
<path fill="none" stroke="#f4f4f4" style="stroke: var(--color2, #f4f4f4)" stroke-linejoin="round" stroke-linecap="round" stroke-miterlimit="4" stroke-width="1" d="M13.75 23.5v-7.5h4.5v7.5"></path>
</symbol>
<symbol id="icon-up" viewBox="0 0 32 32">
<path fill="#4440f6" style="fill: var(--color1, #4440f6)" d="M3.76 25.143l-3.76-3.479 16-14.807 16 14.807-3.76 3.479-12.24-11.303-12.24 11.303z"></path>
</symbol>
<symbol id="icon-moon_theme" viewBox="0 0 32 32">
<path fill="none" stroke="#5f6775" style="stroke: var(--color5, #5f6775)" stroke-linejoin="round" stroke-linecap="round" stroke-miterlimit="4" stroke-width="2.2857" d="M28 17.053c-0.584 6.134-5.71 10.893-11.947 10.893-6.627 0-11.998-5.372-11.998-11.998 0-6.237 4.759-11.363 10.845-11.944l0.048-0.004c-1.141 1.53-1.827 3.458-1.827 5.546 0 5.155 4.179 9.333 9.333 9.333 2.088 0 4.016-0.686 5.571-1.844l-0.025 0.018z"></path>
</symbol>
<symbol id="icon-sun_theme" viewBox="0 0 32 32">
<path fill="none" stroke="#4b48db" style="stroke: var(--color6, #4b48db)" stroke-linejoin="round" stroke-linecap="round" stroke-miterlimit="4" stroke-width="2.2857" d="M16 1.778v2.586M16 27.636v2.586M5.943 5.943l1.836 1.836M24.224 24.224l1.836 1.836M1.778 16h2.586M27.636 16h2.586M5.943 26.059l1.836-1.836M24.222 7.778l1.836-1.836M22.466 16c0 3.57-2.894 6.465-6.465 6.465s-6.465-2.894-6.465-6.465v0c0-3.57 2.894-6.465 6.465-6.465s6.465 2.894 6.465 6.465v0z"></path>
</symbol>
<symbol id="mail" viewBox="0 0 43 32">
<path d="M37.333 0h-32c-2.2 0-3.98 1.8-3.98 4l-0.020 24c0 2.2 1.8 4 4 4h32c2.2 0 4-1.8 4-4v-24c0-2.2-1.8-4-4-4zM36.533 8.5l-14.14 8.84c-0.64 0.4-1.48 0.4-2.12 0l-14.14-8.84c-0.5-0.32-0.8-0.86-0.8-1.44 0-1.34 1.46-2.14 2.6-1.44l13.4 8.38 13.4-8.38c1.14-0.7 2.6 0.1 2.6 1.44 0 0.58-0.3 1.12-0.8 1.44z"></path>
</symbol>
<symbol id="name" viewBox="0 0 32 32">
<path d="M16 16c4.42 0 8-3.58 8-8s-3.58-8-8-8c-4.42 0-8 3.58-8 8s3.58 8 8 8zM16 20c-5.34 0-16 2.68-16 8v2c0 1.1 0.9 2 2 2h28c1.1 0 2-0.9 2-2v-2c0-5.32-10.66-8-16-8z"></path>
</symbol>
<symbol id="send" viewBox="0 0 32 32">
<path fill="#fff" style="fill: var(--color1, #fff)" d="M32 0l-32 18 10.227 3.788 15.773-14.788-11.998 16.186 0.010 0.004-0.012-0.004v8.814l5.735-6.691 7.265 2.691 5-28z"></path>
</symbol>
<symbol id="tel" viewBox="0 0 32 32">
<path d="M27.419 20.852l-4.201-0.48c-1.009-0.116-2.002 0.232-2.713 0.943l-3.044 3.044c-4.681-2.382-8.519-6.203-10.901-10.901l3.060-3.060c0.711-0.711 1.059-1.704 0.943-2.713l-0.48-4.168c-0.198-1.671-1.604-2.928-3.292-2.928h-2.862c-1.869 0-3.424 1.555-3.308 3.424 0.877 14.126 12.174 25.407 26.284 26.284 1.869 0.116 3.424-1.439 3.424-3.308v-2.861c0.016-1.671-1.241-3.077-2.911-3.275z"></path>
</symbol>
<symbol id="tel" viewBox="0 0 32 32">
<path d="M27.419 20.852l-4.201-0.48c-1.009-0.116-2.002 0.232-2.713 0.943l-3.044 3.044c-4.681-2.382-8.519-6.203-10.901-10.901l3.060-3.060c0.711-0.711 1.059-1.704 0.943-2.713l-0.48-4.168c-0.198-1.671-1.604-2.928-3.292-2.928h-2.862c-1.869 0-3.424 1.555-3.308 3.424 0.877 14.126 12.174 25.407 26.284 26.284 1.869 0.116 3.424-1.439 3.424-3.308v-2.861c0.016-1.671-1.241-3.077-2.911-3.275z"></path>
</symbol>
<symbol id="check" viewBox="0 0 34 32">
<path d="M30.341 3.556v24.889h-26.548v-24.889h26.548zM30.341 0h-26.548c-2.086 0-3.793 1.6-3.793 3.556v24.889c0 1.956 1.707 3.556 3.793 3.556h26.548c2.086 0 3.793-1.6 3.793-3.556v-24.889c0-1.956-1.707-3.556-3.793-3.556z"></path>
</symbol>
<symbol id="iconcheck" viewBox="0 0 34 32">
<path fill="#2196f3" style="fill: var(--color1, #2196f3)" d="M4.267 0h25.6c2.356 0 4.267 1.91 4.267 4.267v23.467c0 2.356-1.91 4.267-4.267 4.267h-25.6c-2.356 0-4.267-1.91-4.267-4.267v-23.467c0-2.356 1.91-4.267 4.267-4.267z"></path>
<path fill="#fff" style="fill: var(--color2, #fff); stroke: var(--color2, #fff)" stroke="#fff" stroke-linejoin="miter" stroke-linecap="butt" stroke-miterlimit="4" stroke-width="0.4267" d="M8.442 16.537l-0.147-0.14-2.205 2.088 7.767 7.41 16.318-15.567-2.19-2.089-14.128 13.465-5.416-5.167z"></path>
</symbol>
<symbol id="exit" viewBox="0 0 32 32">
<path d="M32 3.223l-3.223-3.223-12.777 12.777-12.777-12.777-3.223 3.223 12.777 12.777-12.777 12.777 3.223 3.223 12.777-12.777 12.777 12.777 3.223-3.223-12.777-12.777 12.777-12.777z"></path>
</symbol>
<symbol id="icon-password" viewBox="0 0 28 32">
<path d="M0.753 14.594v0 0c-0.414 0-0.753 0.339-0.753 0.753v15.898c0 0.414 0.339 0.753 0.753 0.753h26.635c0.414 0 0.753-0.339 0.753-0.753v-15.901c0-0.414-0.339-0.753-0.753-0.753h-3.414v-4.924c0-2.659-1.089-5.076-2.839-6.826l-0.003-0.003c-1.753-1.75-4.169-2.839-6.826-2.839-2.659 0-5.078 1.089-6.828 2.839v0.003c-1.75 1.753-2.839 4.167-2.839 6.826v4.927h-3.888zM6.716 22.341v0c-1.141 0-2.063 0.922-2.063 2.060 0 1.141 0.924 2.063 2.063 2.063 1.141 0 2.063-0.924 2.063-2.063s-0.924-2.060-2.063-2.060zM21.424 22.341v0c-1.138 0-2.063 0.922-2.063 2.060 0 1.141 0.924 2.063 2.063 2.063s2.060-0.924 2.060-2.063c0-1.138-0.922-2.060-2.060-2.060zM14.070 22.341v0c-1.141 0-2.063 0.922-2.063 2.060 0 1.141 0.924 2.063 2.063 2.063s2.060-0.924 2.060-2.063c0-1.138-0.922-2.060-2.060-2.060zM4.060 20.823h20.016c1.068 0 1.94 0.872 1.94 1.938v3.281c0 1.065-0.872 1.938-1.94 1.938h-20.016c-1.065 0-1.938-0.872-1.938-1.938v-3.281c0-1.065 0.872-1.938 1.938-1.938v0zM8.396 14.594l0.005-0.284v-4.701c0-1.625 0.664-3.104 1.734-4.174s2.549-1.734 4.174-1.734c1.622 0 3.102 0.667 4.172 1.737v0c1.070 1.070 1.734 2.549 1.734 4.174v4.982h-11.82z"></path>
</symbol>
</defs>
</svg>
