<svg aria-hidden="true" style="position: absolute; width: 0; height: 0; overflow: hidden;" version="1.1" xmlns="http://www.w3.org/2000/svg" xmlns:xlink="http://www.w3.org/1999/xlink">
<defs>
<symbol id="Vector" viewBox="0 0 24 32">
<path fill="#fff" style="fill: var(--color1, #fff)" d="M12.16 0.881c-6.557 0.008-11.871 5.321-11.88 11.878v0.001c0 0.005 0 0.012 0 0.018 0 2.685 0.9 5.16 2.414 7.14l-0.021-0.028s0.324 0.426 0.376 0.486l9.11 10.747 9.114-10.749c0.047-0.058 0.372-0.483 0.372-0.483l0.001-0.004c1.494-1.951 2.394-4.425 2.394-7.11 0-0.005 0-0.010 0-0.015v0.001c-0.007-6.559-5.322-11.874-11.88-11.881h-0.001zM12.16 17.080c-2.386 0-4.321-1.934-4.321-4.321s1.934-4.321 4.321-4.321v0c2.386 0 4.32 1.934 4.32 4.32s-1.934 4.32-4.32 4.32v0z"></path>
</symbol>
</defs>
</svg>