<svg aria-hidden="true" style="position: absolute; width: 0; height: 0; overflow: hidden;"
    version="1.1" xmlns="http://www.w3.org/2000/svg" xmlns:xlink="http://www.w3.org/1999/xlink">
    <defs>
        <symbol id="vector-right" viewBox="0 0 18 32">
            <path
                d="M11.314 16.001l-11.314 11.314 3.232 3.232 14.546-14.546-14.546-14.546-3.232 3.232z"></path>
        </symbol>
        <symbol id="vector-left" viewBox="0 0 18 32">
            <path
                d="M6.464 16.001l11.314 11.314-3.232 3.232-14.546-14.546 14.546-14.546 3.232 3.232-11.314 11.314z"></path>
        </symbol>
        <symbol id="icon-right" viewBox="0 0 32 10">
            <path
                d="M16.229 16l-3.773-3.771 1.887-1.887 5.657 5.657-5.657 5.657-1.885-1.887 3.772-3.771z"></path>
        </symbol>
        <symbol id="icon-left" viewBox="0 0 32 32">
            <path d="M14.437 16l6.6 6.6-1.885 1.885-8.485-8.485 8.485-8.485 1.885 1.885-6.6 6.6z"></path>
        </symbol>
        <symbol id="icon-book" viewBox="0 0 32 32">
            <path fill="#4440f6" style="fill: var(--color1, #4440f6)"
                d="M32 16c0 8.837-7.163 16-16 16s-16-7.163-16-16c0-8.837 7.163-16 16-16s16 7.163 16 16z"></path>
            <path fill="none" stroke="#f4f4f4" style="stroke: var(--color2, #f4f4f4)"
                stroke-linejoin="round" stroke-linecap="round" stroke-miterlimit="4"
                stroke-width="1"
                d="M8.5 9.25h4.5c1.657 0 3 1.343 3 3v0 10.5c0-1.243-1.007-2.25-2.25-2.25v0h-5.25v-11.25zM23.5 9.25h-4.5c-1.657 0-3 1.343-3 3v0 10.5c0-1.243 1.007-2.25 2.25-2.25v0h5.25v-11.25z"></path>
        </symbol>
        <symbol id="icon-heart" viewBox="0 0 32 32">
            <path fill="#4440f6" style="fill: var(--color1, #4440f6)"
                d="M32 16c0 8.837-7.163 16-16 16s-16-7.163-16-16c0-8.837 7.163-16 16-16s16 7.163 16 16z"></path>
            <path fill="none" stroke="#f4f4f4" style="stroke: var(--color2, #f4f4f4)"
                stroke-linejoin="round" stroke-linecap="round" stroke-miterlimit="4"
                stroke-width="1"
                d="M22.63 10.457c-0.747-0.747-1.778-1.208-2.918-1.208s-2.171 0.462-2.918 1.208l-0.795 0.795-0.795-0.795c-0.745-0.74-1.772-1.197-2.906-1.197-2.279 0-4.126 1.847-4.126 4.126 0 1.134 0.457 2.161 1.197 2.906l6.63 6.63 6.63-6.63c0.747-0.747 1.208-1.778 1.208-2.918s-0.462-2.171-1.208-2.918v0z"></path>
        </symbol>
        <symbol id="icon-home" viewBox="0 0 32 32">
            <path fill="#4440f6" style="fill: var(--color1, #4440f6)"
                d="M32 16c0 8.837-7.163 16-16 16s-16-7.163-16-16c0-8.837 7.163-16 16-16s16 7.163 16 16z"></path>
            <path fill="none" stroke="#f4f4f4" style="stroke: var(--color2, #f4f4f4)"
                stroke-linejoin="round" stroke-linecap="round" stroke-miterlimit="4"
                stroke-width="1"
                d="M9.25 13.75l6.75-5.25 6.75 5.25v8.25c0 0.828-0.672 1.5-1.5 1.5v0h-10.5c-0.828 0-1.5-0.672-1.5-1.5v0-8.25z"></path>
            <path fill="none" stroke="#f4f4f4" style="stroke: var(--color2, #f4f4f4)"
                stroke-linejoin="round" stroke-linecap="round" stroke-miterlimit="4"
                stroke-width="1" d="M13.75 23.5v-7.5h4.5v7.5"></path>
        </symbol>
        <symbol id="icon-durk-heart" viewBox="0 0 32 32">
            <path fill="#4b48da" style="fill: var(--color3, #4b48da)"
                d="M9.334 4c-3.682 0-6.668 2.954-6.668 6.6 0 2.942 1.168 9.926 12.652 16.986 0.194 0.12 0.43 0.191 0.682 0.191s0.488-0.071 0.688-0.194l-0.006 0.003c11.484-7.060 12.652-14.044 12.652-16.986 0-3.646-2.986-6.6-6.668-6.6-3.68 0-6.666 4-6.666 4s-2.986-4-6.666-4z"></path>
        </symbol>
        <symbol id="icon-light-heart" viewBox="0 0 32 32">
            <path fill="none" stroke="#4440f7" style="stroke: var(--color4, #4440f7)"
                stroke-linejoin="round" stroke-linecap="round" stroke-miterlimit="4"
                stroke-width="2"
                d="M9.334 4c-3.682 0-6.668 2.954-6.668 6.6 0 2.942 1.168 9.926 12.652 16.986 0.194 0.12 0.43 0.191 0.682 0.191s0.488-0.071 0.688-0.194l-0.006 0.003c11.484-7.060 12.652-14.044 12.652-16.986 0-3.646-2.986-6.6-6.668-6.6-3.68 0-6.666 4-6.666 4s-2.986-4-6.666-4z"></path>
        </symbol>
        <symbol id="icon-up" viewBox="0 0 32 32">
            <path fill="#4440f6" style="fill: var(--color1, #4440f6)"
                d="M3.76 25.143l-3.76-3.479 16-14.807 16 14.807-3.76 3.479-12.24-11.303-12.24 11.303z"></path>
        </symbol>
        <symbol id="icon-down" viewBox="0 0 32 32">
            <path fill="#4440f6" style="fill: var(--color1, #4440f6)"
                d="M3.76 9.143l-3.76 3.479 16 14.807 16-14.807-3.76-3.479-12.24 11.303-12.24-11.303z"></path>
        </symbol>
        <symbol id="icon-calendar" viewBox="0 0 32 32">
            <path fill="#4440f7" style="fill: var(--color4, #4440f7)"
                d="M22.667 4h5.333c0.736 0 1.333 0.597 1.333 1.333v0 21.334c0 0.736-0.597 1.333-1.333 1.333v0h-24c-0.736 0-1.333-0.597-1.333-1.333v0-21.334c0-0.736 0.597-1.333 1.333-1.333v0h5.333v-2.667h2.667v2.667h8v-2.667h2.667v2.667zM26.667 14.667h-21.334v10.666h21.334v-10.666zM20 6.667h-8v2.666h-2.667v-2.666h-4v5.333h21.334v-5.333h-4v2.666h-2.667v-2.666zM8 17.333h2.667v2.667h-2.667v-2.667zM14.667 17.333h2.666v2.667h-2.666v-2.667zM21.333 17.333h2.667v2.667h-2.667v-2.667z"></path>
        </symbol>
        <symbol id="icon-search" viewBox="0 0 32 32">
            <path
                d="M13.333 23.6c2.368 0 4.666-0.752 6.53-2.138l5.862 5.568 1.885-1.792-5.862-5.568c1.395-1.669 2.245-3.836 2.253-6.201v-0.002c0-5.587-4.784-10.134-10.667-10.134-5.882 0-10.666 4.547-10.666 10.134s4.784 10.133 10.666 10.133zM13.333 5.867c4.413 0 8 3.408 8 7.6s-3.587 7.6-8 7.6c-4.411 0-8-3.408-8-7.6s3.589-7.6 8-7.6z"></path>
        </symbol>
        <symbol id="icon-done" viewBox="0 0 32 32">
            <path
                d="M16.188 3.594a.6.6 0 0 0-.412.182L6.6 12.952 2.824 9.176a.6.6 0 1 0-.848.848l4.2 4.2a.6.6 0 0 0 .848 0l9.6-9.6a.6.6 0 0 0-.436-1.03Z"
                fill="#00DD73" />
        </symbol>
    </defs>
</svg>