<svg xmlns="http://www.w3.org/2000/svg" aria-hidden="true" style="position:absolute;width:0;height:0;overflow:hidden"><defs>
<symbol id="icon-menu" viewBox="0 0 32 32">
<path stroke-linejoin="round" stroke-linecap="round" stroke-miterlimit="4" stroke-width="2.6667" d="M4 16h24"></path>
<path stroke-linejoin="round" stroke-linecap="round" stroke-miterlimit="4" stroke-width="2.6667" d="M4 8h24"></path>
<path stroke-linejoin="round" stroke-linecap="round" stroke-miterlimit="4" stroke-width="2.6667" d="M4 24h24"></path>
</symbol>
<symbol id="icon-akar-heart" viewBox="0 0 32 32"><path fill="none" stroke="#4440f7" stroke-linecap="round" stroke-linejoin="round" stroke-width="2" d="M9.333 4c-3.681 0-6.667 2.955-6.667 6.6 0 2.943 1.167 9.927 12.651 16.987a1.316 1.316 0 0 0 1.366 0c11.484-7.06 12.651-14.044 12.651-16.987 0-3.645-2.985-6.6-6.667-6.6S16 8 16 8s-2.985-4-6.667-4z" style="stroke:var(--color1, #4440f7)"/></symbol>
<symbol id="icon-akar-1" viewBox="0 0 32 32"><path fill="#4b48da" d="M9.333 4c-3.681 0-6.667 2.955-6.667 6.6 0 2.943 1.167 9.927 12.651 16.987a1.316 1.316 0 0 0 1.366 0c11.484-7.06 12.651-14.044 12.651-16.987 0-3.645-2.985-6.6-6.667-6.6S16 8 16 8s-2.985-4-6.667-4z" style="fill:var(--color2, #4b48da)"/></symbol>
<symbol id="icon-search" viewBox="0 0 32 32"><path d="M13.333 23.6c2.367 0 4.665-.753 6.529-2.138l5.861 5.568 1.885-1.791-5.861-5.568a9.755 9.755 0 0 0 2.252-6.204c0-5.587-4.785-10.133-10.667-10.133S2.665 7.88 2.665 13.467c0 5.587 4.785 10.133 10.667 10.133zm0-17.733c4.412 0 8 3.409 8 7.6s-3.588 7.6-8 7.6-8-3.409-8-7.6 3.588-7.6 8-7.6z"/></symbol>
<symbol id="icon-frame-bottom" viewBox="0 0 32 32"><path fill="#4440f6" d="M3.76 9.143 0 12.622l16 14.806 16-14.806-3.76-3.479L16 20.445 3.76 9.143z" style="fill:var(--color3, #4440f6)"/></symbol>
<symbol id="icon-frame-top" viewBox="0 0 32 32"><path fill="#4440f6" d="M3.76 25.143 0 21.664 16 6.858l16 14.806-3.76 3.479L16 13.841 3.76 25.143z" style="fill:var(--color3, #4440f6)"/></symbol>
<symbol id="icon-calendar" viewBox="0 0 32 32"><path fill="#4440f7" d="M22.667 4H28a1.335 1.335 0 0 1 1.334 1.334v21.333A1.335 1.335 0 0 1 28 28.001H4a1.33 1.33 0 0 1-1.333-1.334V5.334A1.333 1.333 0 0 1 4 4h5.333V1.333H12V4h8V1.333h2.667V4zm4 10.667H5.334v10.667h21.333V14.667zm-6.667-8h-8v2.667H9.333V6.667h-4V12h21.333V6.667h-4v2.667h-2.667V6.667zM8 17.333h2.667V20H8v-2.667zm6.667 0h2.667V20h-2.667v-2.667zm6.666 0H24V20h-2.667v-2.667z" style="fill:var(--color1, #4440f7)"/></symbol>
<symbol id="icon_heart-2" viewBox="0 0 32 32"><path fill="#4440f6" d="M32 16c0 8.837-7.163 16-16 16S0 24.837 0 16 7.163 0 16 0s16 7.163 16 16z" style="fill:var(--color3, #4440f6)"/><path fill="none" stroke="#f4f4f4" stroke-linecap="round" stroke-linejoin="round" d="M22.63 10.457a4.111 4.111 0 0 0-4.496-.895 4.1 4.1 0 0 0-1.338.895l-.795.795-.795-.795a4.125 4.125 0 0 0-5.836 0 4.125 4.125 0 0 0 0 5.835l6.63 6.63 6.63-6.63a4.111 4.111 0 0 0 .895-4.496 4.116 4.116 0 0 0-.895-1.338v0z" style="stroke:var(--color4, #f4f4f4)"/></symbol>
<symbol id="icon-book" viewBox="0 0 32 32"><path fill="#4440f6" d="M32 16c0 8.837-7.163 16-16 16S0 24.837 0 16 7.163 0 16 0s16 7.163 16 16z" style="fill:var(--color3, #4440f6)"/><path fill="none" stroke="#f4f4f4" stroke-linecap="round" stroke-linejoin="round" d="M8.5 9.25H13a3.004 3.004 0 0 1 3 3v10.5a2.25 2.25 0 0 0-2.25-2.25H8.5V9.25zM23.5 9.25H19a3.004 3.004 0 0 0-3 3v10.5a2.25 2.25 0 0 1 2.25-2.25h5.25V9.25z" style="stroke:var(--color4, #f4f4f4)"/></symbol>
<symbol id="icon-home" viewBox="0 0 32 32"><path fill="#4440f6" d="M32 16c0 8.837-7.163 16-16 16S0 24.837 0 16 7.163 0 16 0s16 7.163 16 16z" style="fill:var(--color3, #4440f6)"/><path fill="none" stroke="#f4f4f4" stroke-linecap="round" stroke-linejoin="round" d="M9.25 13.75 16 8.5l6.75 5.25V22a1.503 1.503 0 0 1-1.5 1.5h-10.5a1.503 1.503 0 0 1-1.5-1.5v-8.25z" style="stroke:var(--color4, #f4f4f4)"/><path fill="none" stroke="#f4f4f4" stroke-linecap="round" stroke-linejoin="round" d="M13.75 23.5V16h4.5v7.5" style="stroke:var(--color4, #f4f4f4)"/></symbol>
<symbol id="menu" viewBox="0 0 24 16">
<path fill-rule="evenodd" clip-rule="evenodd" d="M0 2.66667V0H24V2.66667H0ZM0 9.33333H24V6.66667H0V9.33333ZM0 16H24V13.3333H0V16Z"/>
</symbol>
<symbol id="close" viewBox="0 0 19 19">
<path d="M18.6667 1.88L16.7867 0L9.33333 7.45334L1.88 0L0 1.88L7.45334 9.33333L0 16.7867L1.88 18.6667L9.33333 11.2133L16.7867 18.6667L18.6667 16.7867L11.2133 9.33333L18.6667 1.88Z"/>
</symbol>
<symbol id="icon-Frame-right" viewBox="0 0 32 32">
<path style="fill: #F4F4F4" d="M6.857 3.76l3.479-3.76 14.806 16-14.806 16-3.479-3.76 11.302-12.24-11.302-12.24z"></path>
</symbol>
<symbol id="icon-sun" viewBox="0 0 32 32">
<path fill="none" stroke="#4b48db" style="stroke: var(--color1, #4b48db)" stroke-linejoin="round" stroke-linecap="round" stroke-miterlimit="4" stroke-width="2.2857" d="M15.999 1.778v2.586M15.999 27.636v2.586M5.94 5.941l1.836 1.836M24.222 24.223l1.836 1.836M1.777 16h2.586M27.635 16h2.586M5.94 26.059l1.836-1.836M24.222 7.777l1.836-1.836M22.464 16c0 3.57-2.894 6.465-6.465 6.465s-6.465-2.894-6.465-6.465c0-3.57 2.894-6.465 6.465-6.465s6.465 2.894 6.465 6.465z"></path>
</symbol>
<symbol id="icon-moon" viewBox="0 0 32 32">
<path fill="none" stroke="#5f6775" style="stroke: var(--color3, #5f6775)" stroke-linejoin="round" stroke-linecap="round" stroke-miterlimit="4" stroke-width="2.2857" d="M28 17.053c-0.21 2.27-1.061 4.433-2.456 6.236s-3.273 3.172-5.417 3.946c-2.144 0.774-4.464 0.922-6.688 0.426s-4.262-1.615-5.874-3.227c-1.612-1.612-2.731-3.649-3.227-5.874s-0.348-4.544 0.426-6.688 2.143-4.023 3.946-5.417c1.803-1.394 3.966-2.246 6.236-2.456-1.329 1.798-1.968 4.013-1.802 6.242s1.127 4.325 2.708 5.906c1.581 1.581 3.676 2.542 5.906 2.708s4.444-0.473 6.242-1.802v0z"></path>
</symbol>
<symbol id="icon-toggle" viewBox="0 0 61 32">
<path fill="#fff" style="fill: var(--color2, #fff)" d="M15.238 1.223h30.476c8.161 0 14.777 6.616 14.777 14.777s-6.616 14.777-14.777 14.777h-30.476c-8.161 0-14.777-6.616-14.777-14.777s6.616-14.777 14.777-14.777z"></path>
<path fill="#4b48db" style="fill: var(--color1, #4b48db)" d="M25.905 16c0 6.733-5.458 12.19-12.19 12.19s-12.19-5.458-12.19-12.19c0-6.733 5.458-12.19 12.19-12.19s12.19 5.458 12.19 12.19z"></path>
<path fill="none" stroke="#4b48db" style="stroke: var(--color1, #4b48db)" stroke-linejoin="miter" stroke-linecap="butt" stroke-miterlimit="4" stroke-width="0.9214" d="M15.238 1.223h30.476c8.161 0 14.777 6.616 14.777 14.777s-6.616 14.777-14.777 14.777h-30.476c-8.161 0-14.777-6.616-14.777-14.777s6.616-14.777 14.777-14.777z"></path>
</symbol>
<symbol id="icon-toggle-n" viewBox="0 0 61 32">
<path fill="#4b48db" style="fill: var(--color1, #4b48db)" d="M15.238 1.524h30.476c7.995 0 14.476 6.481 14.476 14.476s-6.481 14.476-14.476 14.476h-30.476c-7.995 0-14.476-6.481-14.476-14.476s6.481-14.476 14.476-14.476z"></path>
<path fill="#fff" style="fill: var(--color2, #fff)" d="M57.905 16c0 6.733-5.458 12.19-12.19 12.19s-12.19-5.458-12.19-12.19c0-6.733 5.458-12.19 12.19-12.19s12.19 5.458 12.19 12.19z"></path>
<path fill="none" stroke="#fff" style="stroke: var(--color2, #fff)" stroke-linejoin="miter" stroke-linecap="butt" stroke-miterlimit="4" stroke-width="1.5238" d="M15.238 1.524h30.476c7.995 0 14.476 6.481 14.476 14.476s-6.481 14.476-14.476 14.476h-30.476c-7.995 0-14.476-6.481-14.476-14.476s6.481-14.476 14.476-14.476z"></path>
</symbol>
</defs></svg>